<mxfile host="app.diagrams.net" agent="Mozilla/5.0 (Windows NT 10.0; Win64; x64) AppleWebKit/537.36 (KHTML, like Gecko) Chrome/131.0.0.0 Safari/537.36" version="26.0.5">
  <diagram name="Page-1" id="TR5sEHsPR-A56FJRqs4F">
    <mxGraphModel dx="1434" dy="738" grid="1" gridSize="10" guides="1" tooltips="1" connect="1" arrows="1" fold="1" page="1" pageScale="1" pageWidth="850" pageHeight="1100" math="0" shadow="0">
      <root>
        <mxCell id="0" />
        <mxCell id="1" parent="0" />
        <mxCell id="nJXbT9FgGnLmUq8w1Ts0-23" value="" style="shape=actor;whiteSpace=wrap;html=1;" vertex="1" parent="1">
          <mxGeometry x="60" y="480" width="40" height="60" as="geometry" />
        </mxCell>
        <mxCell id="nJXbT9FgGnLmUq8w1Ts0-24" value="User Agent" style="rounded=1;whiteSpace=wrap;html=1;" vertex="1" parent="1">
          <mxGeometry x="180" y="470" width="80" height="80" as="geometry" />
        </mxCell>
        <mxCell id="nJXbT9FgGnLmUq8w1Ts0-25" value="API" style="rounded=1;whiteSpace=wrap;html=1;" vertex="1" parent="1">
          <mxGeometry x="420" y="470" width="80" height="80" as="geometry" />
        </mxCell>
        <mxCell id="nJXbT9FgGnLmUq8w1Ts0-26" value="LLM" style="rounded=1;whiteSpace=wrap;html=1;" vertex="1" parent="1">
          <mxGeometry x="670" y="470" width="80" height="80" as="geometry" />
        </mxCell>
        <mxCell id="nJXbT9FgGnLmUq8w1Ts0-27" value="Service" style="rounded=1;whiteSpace=wrap;html=1;" vertex="1" parent="1">
          <mxGeometry x="545" y="470" width="80" height="80" as="geometry" />
        </mxCell>
        <mxCell id="nJXbT9FgGnLmUq8w1Ts0-28" value="" style="endArrow=classic;html=1;rounded=0;" edge="1" parent="1" source="nJXbT9FgGnLmUq8w1Ts0-23" target="nJXbT9FgGnLmUq8w1Ts0-24">
          <mxGeometry width="50" height="50" relative="1" as="geometry">
            <mxPoint x="390" y="570" as="sourcePoint" />
            <mxPoint x="440" y="520" as="targetPoint" />
          </mxGeometry>
        </mxCell>
        <mxCell id="nJXbT9FgGnLmUq8w1Ts0-29" value="" style="endArrow=classic;html=1;rounded=0;" edge="1" parent="1" source="nJXbT9FgGnLmUq8w1Ts0-24" target="nJXbT9FgGnLmUq8w1Ts0-25">
          <mxGeometry width="50" height="50" relative="1" as="geometry">
            <mxPoint x="190" y="520" as="sourcePoint" />
            <mxPoint x="230" y="520" as="targetPoint" />
          </mxGeometry>
        </mxCell>
        <mxCell id="nJXbT9FgGnLmUq8w1Ts0-30" value="" style="endArrow=classic;html=1;rounded=0;" edge="1" parent="1" source="nJXbT9FgGnLmUq8w1Ts0-25" target="nJXbT9FgGnLmUq8w1Ts0-27">
          <mxGeometry width="50" height="50" relative="1" as="geometry">
            <mxPoint x="390" y="520" as="sourcePoint" />
            <mxPoint x="430" y="520" as="targetPoint" />
          </mxGeometry>
        </mxCell>
        <mxCell id="nJXbT9FgGnLmUq8w1Ts0-31" value="" style="endArrow=classic;html=1;rounded=0;" edge="1" parent="1" source="nJXbT9FgGnLmUq8w1Ts0-27" target="nJXbT9FgGnLmUq8w1Ts0-26">
          <mxGeometry width="50" height="50" relative="1" as="geometry">
            <mxPoint x="510" y="520" as="sourcePoint" />
            <mxPoint x="555" y="520" as="targetPoint" />
          </mxGeometry>
        </mxCell>
        <mxCell id="nJXbT9FgGnLmUq8w1Ts0-32" value="Memory" style="rounded=1;whiteSpace=wrap;html=1;dashed=1;" vertex="1" parent="1">
          <mxGeometry x="230" y="570" width="80" height="60" as="geometry" />
        </mxCell>
        <mxCell id="nJXbT9FgGnLmUq8w1Ts0-33" value="" style="endArrow=classic;html=1;rounded=0;entryX=0.5;entryY=0;entryDx=0;entryDy=0;strokeColor=none;" edge="1" parent="1" source="nJXbT9FgGnLmUq8w1Ts0-24" target="nJXbT9FgGnLmUq8w1Ts0-32">
          <mxGeometry width="50" height="50" relative="1" as="geometry">
            <mxPoint x="150" y="520" as="sourcePoint" />
            <mxPoint x="190" y="520" as="targetPoint" />
          </mxGeometry>
        </mxCell>
        <mxCell id="nJXbT9FgGnLmUq8w1Ts0-34" value="" style="endArrow=classic;html=1;rounded=0;dashed=1;" edge="1" parent="1" source="nJXbT9FgGnLmUq8w1Ts0-24" target="nJXbT9FgGnLmUq8w1Ts0-32">
          <mxGeometry width="50" height="50" relative="1" as="geometry">
            <mxPoint x="150" y="520" as="sourcePoint" />
            <mxPoint x="190" y="520" as="targetPoint" />
          </mxGeometry>
        </mxCell>
        <mxCell id="nJXbT9FgGnLmUq8w1Ts0-35" value="Auth" style="rounded=1;whiteSpace=wrap;html=1;dashed=1;" vertex="1" parent="1">
          <mxGeometry x="420" y="580" width="80" height="60" as="geometry" />
        </mxCell>
        <mxCell id="nJXbT9FgGnLmUq8w1Ts0-36" value="" style="endArrow=classic;html=1;rounded=0;dashed=1;" edge="1" parent="1" source="nJXbT9FgGnLmUq8w1Ts0-25" target="nJXbT9FgGnLmUq8w1Ts0-35">
          <mxGeometry width="50" height="50" relative="1" as="geometry">
            <mxPoint x="456.66666666666674" y="530" as="sourcePoint" />
            <mxPoint x="430" y="520" as="targetPoint" />
          </mxGeometry>
        </mxCell>
        <mxCell id="nJXbT9FgGnLmUq8w1Ts0-37" value="Quality" style="rounded=1;whiteSpace=wrap;html=1;dashed=1;" vertex="1" parent="1">
          <mxGeometry x="545" y="580" width="80" height="60" as="geometry" />
        </mxCell>
        <mxCell id="nJXbT9FgGnLmUq8w1Ts0-38" value="" style="endArrow=classic;html=1;rounded=0;dashed=1;" edge="1" parent="1" source="nJXbT9FgGnLmUq8w1Ts0-27" target="nJXbT9FgGnLmUq8w1Ts0-37">
          <mxGeometry width="50" height="50" relative="1" as="geometry">
            <mxPoint x="550.0014285714285" y="520" as="sourcePoint" />
            <mxPoint x="566.4300000000001" y="530" as="targetPoint" />
          </mxGeometry>
        </mxCell>
        <mxCell id="nJXbT9FgGnLmUq8w1Ts0-39" value="Context" style="rounded=1;whiteSpace=wrap;html=1;dashed=1;fillColor=#dae8fc;strokeColor=#6c8ebf;" vertex="1" parent="1">
          <mxGeometry x="130" y="570" width="80" height="60" as="geometry" />
        </mxCell>
        <mxCell id="nJXbT9FgGnLmUq8w1Ts0-40" value="" style="endArrow=classic;html=1;rounded=0;dashed=1;" edge="1" parent="1" source="nJXbT9FgGnLmUq8w1Ts0-24" target="nJXbT9FgGnLmUq8w1Ts0-39">
          <mxGeometry width="50" height="50" relative="1" as="geometry">
            <mxPoint x="230" y="560" as="sourcePoint" />
            <mxPoint x="230" y="640" as="targetPoint" />
          </mxGeometry>
        </mxCell>
        <mxCell id="nJXbT9FgGnLmUq8w1Ts0-41" value="&lt;span style=&quot;background-color: rgb(251, 251, 251);&quot;&gt;prompt&lt;/span&gt;&lt;br style=&quot;background-color: rgb(251, 251, 251);&quot;&gt;&lt;span style=&quot;background-color: rgb(251, 251, 251);&quot;&gt;+ memory&lt;/span&gt;&lt;br style=&quot;background-color: rgb(251, 251, 251);&quot;&gt;&lt;span style=&quot;background-color: rgb(251, 251, 251);&quot;&gt;+ context&lt;/span&gt;" style="text;html=1;align=center;verticalAlign=middle;whiteSpace=wrap;rounded=0;" vertex="1" parent="1">
          <mxGeometry x="260" y="470" width="150" height="30" as="geometry" />
        </mxCell>
      </root>
    </mxGraphModel>
  </diagram>
</mxfile>
